<svg width="32" height="32" viewBox="0 0 32 32" fill="none" xmlns="http://www.w3.org/2000/svg">
  <path d="M30.0389 1.375L17.7611 10.4722L20.1056 4.60278L30.0389 1.375Z" fill="#E2761B" stroke="#E2761B" stroke-width="0.25" stroke-linecap="round" stroke-linejoin="round"/>
  <path d="M1.95557 1.375L14.1278 10.5611L11.8889 4.60278L1.95557 1.375Z" fill="#E4761B" stroke="#E4761B" stroke-width="0.25" stroke-linecap="round" stroke-linejoin="round"/>
  <path d="M25.6111 22.7222L22.4444 27.6111L29.4444 29.5L31.4444 22.8333L25.6111 22.7222Z" fill="#E4761B" stroke="#E4761B" stroke-width="0.25" stroke-linecap="round" stroke-linejoin="round"/>
  <path d="M0.555664 22.8333L2.55566 29.5L9.55566 27.6111L6.38899 22.7222L0.555664 22.8333Z" fill="#E4761B" stroke="#E4761B" stroke-width="0.25" stroke-linecap="round" stroke-linejoin="round"/>
  <path d="M9.16667 14.0556L7.11111 17.2222L14.0556 17.5556L13.8333 9.94444L9.16667 14.0556Z" fill="#E4761B" stroke="#E4761B" stroke-width="0.25" stroke-linecap="round" stroke-linejoin="round"/>
  <path d="M22.8333 14.0556L18.0556 9.83333L17.9444 17.5556L24.8889 17.2222L22.8333 14.0556Z" fill="#E4761B" stroke="#E4761B" stroke-width="0.25" stroke-linecap="round" stroke-linejoin="round"/>
  <path d="M9.55566 27.6111L13.6667 25.6111L10.1111 22.8889L9.55566 27.6111Z" fill="#E4761B" stroke="#E4761B" stroke-width="0.25" stroke-linecap="round" stroke-linejoin="round"/>
  <path d="M18.3333 25.6111L22.4444 27.6111L21.8889 22.8889L18.3333 25.6111Z" fill="#E4761B" stroke="#E4761B" stroke-width="0.25" stroke-linecap="round" stroke-linejoin="round"/>
  <path d="M22.4444 27.6111L18.3333 25.6111L18.6667 28.3333L18.6111 29.3889L22.4444 27.6111Z" fill="#D7C1B3" stroke="#D7C1B3" stroke-width="0.25" stroke-linecap="round" stroke-linejoin="round"/>
  <path d="M9.55566 27.6111L13.3889 29.3889L13.3333 28.3333L13.6667 25.6111L9.55566 27.6111Z" fill="#D7C1B3" stroke="#D7C1B3" stroke-width="0.25" stroke-linecap="round" stroke-linejoin="round"/>
  <path d="M13.4444 20.7778L10.0556 19.7778L12.3333 18.7778L13.4444 20.7778Z" fill="#233447" stroke="#233447" stroke-width="0.25" stroke-linecap="round" stroke-linejoin="round"/>
  <path d="M18.5556 20.7778L19.6667 18.7778L22 19.7778L18.5556 20.7778Z" fill="#233447" stroke="#233447" stroke-width="0.25" stroke-linecap="round" stroke-linejoin="round"/>
  <path d="M9.55566 27.6111L10.1667 22.7222L6.38899 22.8333L9.55566 27.6111Z" fill="#CD6116" stroke="#CD6116" stroke-width="0.25" stroke-linecap="round" stroke-linejoin="round"/>
  <path d="M21.8333 22.7222L22.4444 27.6111L25.6111 22.8333L21.8333 22.7222Z" fill="#CD6116" stroke="#CD6116" stroke-width="0.25" stroke-linecap="round" stroke-linejoin="round"/>
  <path d="M24.8889 17.2222L17.9444 17.5556L18.6111 20.7778L19.7222 18.7778L22.0556 19.7778L24.8889 17.2222Z" fill="#CD6116" stroke="#CD6116" stroke-width="0.25" stroke-linecap="round" stroke-linejoin="round"/>
  <path d="M10.0556 19.7778L12.3889 18.7778L13.4444 20.7778L14.1111 17.5556L7.11111 17.2222L10.0556 19.7778Z" fill="#CD6116" stroke="#CD6116" stroke-width="0.25" stroke-linecap="round" stroke-linejoin="round"/>
  <path d="M7.11111 17.2222L10.1111 22.8889L10.0556 19.7778L7.11111 17.2222Z" fill="#E4751F" stroke="#E4751F" stroke-width="0.25" stroke-linecap="round" stroke-linejoin="round"/>
  <path d="M22.0556 19.7778L21.8889 22.8889L24.8889 17.2222L22.0556 19.7778Z" fill="#E4751F" stroke="#E4751F" stroke-width="0.25" stroke-linecap="round" stroke-linejoin="round"/>
  <path d="M14.1111 17.5556L13.4444 20.7778L14.2778 25.1667L14.5 19.5L14.1111 17.5556Z" fill="#E4751F" stroke="#E4751F" stroke-width="0.25" stroke-linecap="round" stroke-linejoin="round"/>
  <path d="M17.9444 17.5556L17.6111 19.4444L17.7222 25.1667L18.6111 20.7778L17.9444 17.5556Z" fill="#E4751F" stroke="#E4751F" stroke-width="0.25" stroke-linecap="round" stroke-linejoin="round"/>
  <path d="M18.6111 20.7778L17.7222 25.1667L18.3333 25.6111L21.8889 22.8889L22.0556 19.7778L18.6111 20.7778Z" fill="#F6851B" stroke="#F6851B" stroke-width="0.25" stroke-linecap="round" stroke-linejoin="round"/>
  <path d="M10.0556 19.7778L10.1111 22.8889L13.6667 25.6111L14.2778 25.1667L13.4444 20.7778L10.0556 19.7778Z" fill="#F6851B" stroke="#F6851B" stroke-width="0.25" stroke-linecap="round" stroke-linejoin="round"/>
  <path d="M18.6111 29.3889L18.6667 28.3333L18.3889 28.1111H13.6111L13.3333 28.3333L13.3889 29.3889L9.55566 27.6111L10.9444 28.7778L13.5556 30.5556H18.4444L21.0556 28.7778L22.4444 27.6111L18.6111 29.3889Z" fill="#C0AD9E" stroke="#C0AD9E" stroke-width="0.25" stroke-linecap="round" stroke-linejoin="round"/>
  <path d="M18.3333 25.6111L17.7222 25.1667H14.2778L13.6667 25.6111L13.3333 28.3333L13.6111 28.1111H18.3889L18.6667 28.3333L18.3333 25.6111Z" fill="#161616" stroke="#161616" stroke-width="0.25" stroke-linecap="round" stroke-linejoin="round"/>
  <path d="M30.5556 11.1111L32 4.88889L30.0389 1.375L18.3333 10.2222L22.8333 14.0556L29.3333 15.8889L30.6111 14.3889L30 13.9444L31.3889 12.7222L30.6111 12.1111L32 11.1111L30.5556 11.1111Z" fill="#763D16" stroke="#763D16" stroke-width="0.25" stroke-linecap="round" stroke-linejoin="round"/>
  <path d="M0 4.88889L1.44444 11.1111L0 12.1111L1.38889 12.7222L0.611111 13.9444L0 14.3889L0.666667 15.8889L7.16667 14.0556L11.6667 10.2222L0 1.375L0 4.88889Z" fill="#763D16" stroke="#763D16" stroke-width="0.25" stroke-linecap="round" stroke-linejoin="round"/>
  <path d="M29.3333 15.8889L22.8333 14.0556L24.8889 17.2222L21.8889 22.8889L25.6111 22.8333H31.4444L29.3333 15.8889Z" fill="#F6851B" stroke="#F6851B" stroke-width="0.25" stroke-linecap="round" stroke-linejoin="round"/>
  <path d="M9.16667 14.0556L2.66667 15.8889L0.555664 22.8333H6.38899L10.1111 22.8889L7.11111 17.2222L9.16667 14.0556Z" fill="#F6851B" stroke="#F6851B" stroke-width="0.25" stroke-linecap="round" stroke-linejoin="round"/>
  <path d="M17.9444 17.5556L18.3333 10.2222L20.1056 4.60278H11.8889L13.6667 10.2222L14.1111 17.5556L14.2778 19.5556L14.2778 25.1667H17.7222L17.7222 19.5556L17.9444 17.5556Z" fill="#F6851B" stroke="#F6851B" stroke-width="0.25" stroke-linecap="round" stroke-linejoin="round"/>
</svg>