<svg width="64" height="64" viewBox="0 0 64 64" fill="none" xmlns="http://www.w3.org/2000/svg">
  <defs>
    <linearGradient id="wheelGradient" x1="0%" y1="0%" x2="100%" y2="100%">
      <stop offset="0%" style="stop-color:#fbbf24;stop-opacity:1" />
      <stop offset="50%" style="stop-color:#f59e0b;stop-opacity:1" />
      <stop offset="100%" style="stop-color:#d97706;stop-opacity:1" />
    </linearGradient>
    <linearGradient id="redGradient" x1="0%" y1="0%" x2="100%" y2="100%">
      <stop offset="0%" style="stop-color:#ef4444;stop-opacity:1" />
      <stop offset="100%" style="stop-color:#dc2626;stop-opacity:1" />
    </linearGradient>
    <linearGradient id="blueGradient" x1="0%" y1="0%" x2="100%" y2="100%">
      <stop offset="0%" style="stop-color:#3b82f6;stop-opacity:1" />
      <stop offset="100%" style="stop-color:#2563eb;stop-opacity:1" />
    </linearGradient>
    <linearGradient id="greenGradient" x1="0%" y1="0%" x2="100%" y2="100%">
      <stop offset="0%" style="stop-color:#10b981;stop-opacity:1" />
      <stop offset="100%" style="stop-color:#059669;stop-opacity:1" />
    </linearGradient>
    <filter id="wheelShadow" x="-20%" y="-20%" width="140%" height="140%">
      <feDropShadow dx="2" dy="4" stdDeviation="3" flood-color="#000000" flood-opacity="0.3"/>
    </filter>
  </defs>
  
  <!-- Wheel segments -->
  <g filter="url(#wheelShadow)">
    <!-- Red segment -->
    <path d="M32 32 L32 8 A24 24 0 0 1 54.627 20 Z" fill="url(#redGradient)" stroke="#ffffff" stroke-width="1"/>
    
    <!-- Blue segment -->
    <path d="M32 32 L54.627 20 A24 24 0 0 1 54.627 44 Z" fill="url(#blueGradient)" stroke="#ffffff" stroke-width="1"/>
    
    <!-- Green segment -->
    <path d="M32 32 L54.627 44 A24 24 0 0 1 32 56 Z" fill="url(#greenGradient)" stroke="#ffffff" stroke-width="1"/>
    
    <!-- Yellow segment -->
    <path d="M32 32 L32 56 A24 24 0 0 1 9.373 44 Z" fill="url(#wheelGradient)" stroke="#ffffff" stroke-width="1"/>
    
    <!-- Purple segment -->
    <path d="M32 32 L9.373 44 A24 24 0 0 1 9.373 20 Z" fill="#8b5cf6" stroke="#ffffff" stroke-width="1"/>
    
    <!-- Orange segment -->
    <path d="M32 32 L9.373 20 A24 24 0 0 1 32 8 Z" fill="#f97316" stroke="#ffffff" stroke-width="1"/>
    
    <!-- Center circle -->
    <circle cx="32" cy="32" r="6" fill="#374151" stroke="#ffffff" stroke-width="2"/>
    <circle cx="32" cy="32" r="3" fill="#6b7280"/>
  </g>
  
  <!-- Pointer -->
  <g transform="translate(32, 4)">
    <path d="M0 0 L-4 8 L4 8 Z" fill="#dc2626" stroke="#991b1b" stroke-width="1"/>
    <circle cx="0" cy="2" r="2" fill="#fbbf24" stroke="#f59e0b" stroke-width="1"/>
  </g>
</svg>