<svg width="32" height="32" viewBox="0 0 32 32" fill="none" xmlns="http://www.w3.org/2000/svg">
  <rect width="32" height="32" rx="16" fill="#3B99FC"/>
  <path d="M9.6 12.8C13.6 8.8 20.4 8.8 24.4 12.8L25.2 13.6C25.4 13.8 25.4 14.2 25.2 14.4L23.6 16C23.4 16.2 23 16.2 22.8 16L21.6 14.8C19.2 12.4 15.2 12.4 12.8 14.8L11.6 16C11.4 16.2 11 16.2 10.8 16L9.2 14.4C9 14.2 9 13.8 9.2 13.6L9.6 12.8ZM27.2 16.8L28.4 18C28.6 18.2 28.6 18.6 28.4 18.8L21.2 26C21 26.2 20.6 26.2 20.4 26L16 21.6C15.9 21.5 15.7 21.5 15.6 21.6L11.2 26C11 26.2 10.6 26.2 10.4 26L3.2 18.8C3 18.6 3 18.2 3.2 18L4.4 16.8C4.6 16.6 5 16.6 5.2 16.8L9.6 21.2C9.7 21.3 9.9 21.3 10 21.2L14.4 16.8C14.6 16.6 15 16.6 15.2 16.8L19.6 21.2C19.7 21.3 19.9 21.3 20 21.2L24.4 16.8C24.6 16.6 25 16.6 25.2 16.8L27.2 16.8Z" fill="white"/>
</svg>