<?xml version="1.0" encoding="utf-8"?>
<!-- Generator: Adobe Illustrator 24.3.0, SVG Export Plug-In . SVG Version: 6.00 Build 0)  -->
<svg version="1.1" id="Layer_1" xmlns="http://www.w3.org/2000/svg" xmlns:xlink="http://www.w3.org/1999/xlink" x="0px" y="0px"
	 viewBox="0 0 600 600" style="enable-background:new 0 0 600 600;" xml:space="preserve">
<style type="text/css">
	.st0{fill:#DD2E44;}
	.st1{fill:#FFFFFF;}
	.st2{fill:#FFAC33;}
	.st3{fill:#55ACEE;}
	.st4{fill:#3A87C2;}
</style>
<g>
	<path class="st0" d="M49.9,300c0,138.1,112,250.1,250.1,250.1s250.1-112,250.1-250.1S438.1,49.9,300,49.9S49.9,161.9,49.9,300"/>
	<path class="st1" d="M112.4,300c0,103.6,84,187.6,187.6,187.6s187.6-84,187.6-187.6s-84-187.6-187.6-187.6S112.4,196.4,112.4,300"
		/>
	<path class="st0" d="M161.1,300c0,76.7,62.2,139,138.9,139c76.7,0,139-62.2,139-138.9c0,0,0,0,0-0.1c0-76.7-62.2-138.9-138.9-138.9
		S161.1,223.3,161.1,300"/>
	<path class="st1" d="M216.6,300c0,46,37.3,83.4,83.4,83.4s83.4-37.3,83.4-83.4c0,0,0,0,0,0c0-46-37.3-83.4-83.4-83.4
		C254,216.6,216.6,253.9,216.6,300C216.6,300,216.6,300,216.6,300"/>
	<path class="st0" d="M258.3,300c0,23,18.6,41.7,41.7,41.7c23,0,41.7-18.6,41.7-41.7c0,0,0,0,0,0c0-23-18.7-41.7-41.7-41.7
		C277,258.3,258.3,277,258.3,300"/>
	<path class="st2" d="M304.1,313.9c-3.5,0-7.1-1.3-9.8-4.1c-5.4-5.4-5.4-14.1,0-19.5l7.8-7.8c5.4-5.4,14.1-5.4,19.6,0
		c5.4,5.4,5.4,14.1,0,19.5l-7.8,7.8C311.2,312.5,307.6,313.9,304.1,313.9z"/>
	<path class="st3" d="M383.6,146.9c-5.6,28.9,0,65.2,0,65.2l98-102.7c4-20.2-7.3-54.6-23.9-58.9C441.2,46.3,401.1,61.7,383.6,146.9z
		 M453.1,216.4c-28.9,5.6-65.2,0-65.2,0l102.7-98c20.2-4,54.6,7.3,58.9,23.9C553.7,158.8,538.3,198.9,453.1,216.4z"/>
	<path class="st4" d="M505.6,112.2l-161.5,182c-5,5-23.2,12.3-34.9,0.6c-11.6-11.6-5.8-28.9-0.8-33.9L492,98.5c0,0,9.4-8.8,16.1-2.1
		S505.6,112.2,505.6,112.2z"/>
</g>
</svg>
